{
  "accessors": [
    {
      "bufferView": 2,
      "componentType": 5126,
      "count": 65532,
      "max": [
        99.08285522460938,
        27.517597198486328,
        32.31383514404297
      ],
      "min": [
        -36.92563247680664,
        -111.79661560058594,
        -77.11201477050781
      ],
      "type": "VEC3"
    },
    {
      "bufferView": 2,
      "byteOffset": 786384,
      "componentType": 5126,
      "count": 65532,
      "max": [
        0.9999994039535522,
        0.9999175667762756,
        0.9999361634254456
      ],
      "min": [
        -0.9999194741249084,
        -0.9995039701461792,
        -0.9990163445472717
      ],
      "type": "VEC3"
    },
    {
      "bufferView": 1,
      "componentType": 5126,
      "count": 65532,
      "max": [
        0.9994919896125793,
        0.9999210238456726
      ],
      "min": [
        0.0,
        0.0
      ],
      "type": "VEC2"
    },
    {
      "bufferView": 0,
      "componentType": 5125,
      "count": 309906,
      "type": "SCALAR"
    },
    {
      "bufferView": 2,
      "byteOffset": 1572768,
      "componentType": 5126,
      "count": 65532,
      "max": [
        54.07659912109375,
        -11.974958419799805,
        32.77887725830078
      ],
      "min": [
        -2.6830379962921143,
        -93.00509643554688,
        -59.173954010009766
      ],
      "type": "VEC3"
    },
    {
      "bufferView": 2,
      "byteOffset": 2359152,
      "componentType": 5126,
      "count": 65532,
      "max": [
        0.9999891519546509,
        0.9986758828163147,
        0.9998288750648499
      ],
      "min": [
        -0.999998927116394,
        -0.9994180798530579,
        -0.9993361830711365
      ],
      "type": "VEC3"
    },
    {
      "bufferView": 1,
      "byteOffset": 524256,
      "componentType": 5126,
      "count": 65532,
      "max": [
        0.9963210225105286,
        0.9993690252304077
      ],
      "min": [
        0.0011820000363513827,
        0.00014699999883305281
      ],
      "type": "VEC2"
    },
    {
      "bufferView": 0,
      "byteOffset": 1239624,
      "componentType": 5125,
      "count": 324885,
      "type": "SCALAR"
    },
    {
      "bufferView": 2,
      "byteOffset": 3145536,
      "componentType": 5126,
      "count": 65532,
      "max": [
        36.041988372802734,
        45.51166915893555,
        26.164522171020508
      ],
      "min": [
        -48.77260208129883,
        -68.53225708007813,
        -36.436195373535156
      ],
      "type": "VEC3"
    },
    {
      "bufferView": 2,
      "byteOffset": 3931920,
      "componentType": 5126,
      "count": 65532,
      "max": [
        0.9999856948852539,
        0.9998025298118591,
        0.9999455213546753
      ],
      "min": [
        -0.9999960660934448,
        -0.9999719858169556,
        -0.9997922778129578
      ],
      "type": "VEC3"
    },
    {
      "bufferView": 1,
      "byteOffset": 1048512,
      "componentType": 5126,
      "count": 65532,
      "max": [
        0.9989550113677979,
        0.9999759793281555
      ],
      "min": [
        0.0011399999493733048,
        0.0009790000040084124
      ],
      "type": "VEC2"
    },
    {
      "bufferView": 0,
      "byteOffset": 2539164,
      "componentType": 5125,
      "count": 314589,
      "type": "SCALAR"
    },
    {
      "bufferView": 2,
      "byteOffset": 4718304,
      "componentType": 5126,
      "count": 65532,
      "max": [
        101.32870483398438,
        25.54897689819336,
        31.707857131958008
      ],
      "min": [
        -69.73922729492188,
        -28.92561149597168,
        -26.591053009033203
      ],
      "type": "VEC3"
    },
    {
      "bufferView": 2,
      "byteOffset": 5504688,
      "componentType": 5126,
      "count": 65532,
      "max": [
        0.9999921917915344,
        0.9999921321868896,
        0.9999815225601196
      ],
      "min": [
        -0.9999845027923584,
        -0.9999703168869019,
        -0.9998833537101746
      ],
      "type": "VEC3"
    },
    {
      "bufferView": 1,
      "byteOffset": 1572768,
      "componentType": 5126,
      "count": 65532,
      "max": [
        0.9994959831237793,
        0.9999989867210388
      ],
      "min": [
        0.00016599999798927456,
        0.0006019999855197966
      ],
      "type": "VEC2"
    },
    {
      "bufferView": 0,
      "byteOffset": 3797520,
      "componentType": 5125,
      "count": 311778,
      "type": "SCALAR"
    },
    {
      "bufferView": 2,
      "byteOffset": 6291072,
      "componentType": 5126,
      "count": 65532,
      "max": [
        90.79735565185547,
        24.684406280517578,
        21.00664710998535
      ],
      "min": [
        -39.5386848449707,
        -108.06997680664063,
        -48.07335662841797
      ],
      "type": "VEC3"
    },
    {
      "bufferView": 2,
      "byteOffset": 7077456,
      "componentType": 5126,
      "count": 65532,
      "max": [
        0.9999020099639893,
        0.9995126724243164,
        0.9999900460243225
      ],
      "min": [
        -0.999890148639679,
        -0.9999483227729797,
        -0.9995846748352051
      ],
      "type": "VEC3"
    },
    {
      "bufferView": 1,
      "byteOffset": 2097024,
      "componentType": 5126,
      "count": 65532,
      "max": [
        0.9994909763336182,
        0.9995020031929016
      ],
      "min": [
        2.2000000171829015e-05,
        0.0006520000169984996
      ],
      "type": "VEC2"
    },
    {
      "bufferView": 0,
      "byteOffset": 5044632,
      "componentType": 5125,
      "count": 318978,
      "type": "SCALAR"
    },
    {
      "bufferView": 2,
      "byteOffset": 7863840,
      "componentType": 5126,
      "count": 65532,
      "max": [
        5.646297931671143,
        -19.366798400878906,
        -8.283414840698242
      ],
      "min": [
        -90.79878997802734,
        -104.71795654296875,
        -69.60375213623047
      ],
      "type": "VEC3"
    },
    {
      "bufferView": 2,
      "byteOffset": 8650224,
      "componentType": 5126,
      "count": 65532,
      "max": [
        0.9999626874923706,
        0.9997325539588928,
        0.9999942779541016
      ],
      "min": [
        -0.9999907612800598,
        -0.9999744892120361,
        -0.9998891949653625
      ],
      "type": "VEC3"
    },
    {
      "bufferView": 1,
      "byteOffset": 2621280,
      "componentType": 5126,
      "count": 65532,
      "max": [
        0.9995030164718628,
        0.9995070099830627
      ],
      "min": [
        0.00010099999781232327,
        0.000506000011228025
      ],
      "type": "VEC2"
    },
    {
      "bufferView": 0,
      "byteOffset": 6320544,
      "componentType": 5125,
      "count": 304032,
      "type": "SCALAR"
    },
    {
      "bufferView": 2,
      "byteOffset": 9436608,
      "componentType": 5126,
      "count": 65532,
      "max": [
        50.4527587890625,
        -6.489985942840576,
        5.6945672035217285
      ],
      "min": [
        -102.86087036132813,
        -98.60858154296875,
        -70.12560272216797
      ],
      "type": "VEC3"
    },
    {
      "bufferView": 2,
      "byteOffset": 10222992,
      "componentType": 5126,
      "count": 65532,
      "max": [
        0.9999937415122986,
        0.9997893571853638,
        0.9999942779541016
      ],
      "min": [
        -0.9999935030937195,
        -0.9999714493751526,
        -0.999761700630188
      ],
      "type": "VEC3"
    },
    {
      "bufferView": 1,
      "byteOffset": 3145536,
      "componentType": 5126,
      "count": 65532,
      "max": [
        0.999442994594574,
        0.9998800158500671
      ],
      "min": [
        6.800000119255856e-05,
        0.0006179999909363687
      ],
      "type": "VEC2"
    },
    {
      "bufferView": 0,
      "byteOffset": 7536672,
      "componentType": 5125,
      "count": 307722,
      "type": "SCALAR"
    },
    {
      "bufferView": 2,
      "byteOffset": 11009376,
      "componentType": 5126,
      "count": 65532,
      "max": [
        93.34144592285156,
        -22.442651748657227,
        29.001962661743164
      ],
      "min": [
        -37.681941986083984,
        -122.23027038574219,
        -88.6344223022461
      ],
      "type": "VEC3"
    },
    {
      "bufferView": 2,
      "byteOffset": 11795760,
      "componentType": 5126,
      "count": 65532,
      "max": [
        0.9999986290931702,
        0.9998143315315247,
        0.999855101108551
      ],
      "min": [
        -0.9999449849128723,
        -0.9999115467071533,
        -0.9999224543571472
      ],
      "type": "VEC3"
    },
    {
      "bufferView": 1,
      "byteOffset": 3669792,
      "componentType": 5126,
      "count": 65532,
      "max": [
        0.9994860291481018,
        0.9999160170555115
      ],
      "min": [
        0.00011200000153621659,
        0.0007110000005923212
      ],
      "type": "VEC2"
    },
    {
      "bufferView": 0,
      "byteOffset": 8767560,
      "componentType": 5125,
      "count": 265095,
      "type": "SCALAR"
    },
    {
      "bufferView": 2,
      "byteOffset": 12582144,
      "componentType": 5126,
      "count": 65534,
      "max": [
        53.374603271484375,
        51.064945220947266,
        30.917482376098633
      ],
      "min": [
        -101.47130584716797,
        -118.41322326660156,
        -67.14445495605469
      ],
      "type": "VEC3"
    },
    {
      "bufferView": 2,
      "byteOffset": 13368552,
      "componentType": 5126,
      "count": 65534,
      "max": [
        0.9999487996101379,
        0.9999663233757019,
        0.9999678134918213
      ],
      "min": [
        -0.9999863505363464,
        -0.9998850226402283,
        -0.9999369978904724
      ],
      "type": "VEC3"
    },
    {
      "bufferView": 1,
      "byteOffset": 4194048,
      "componentType": 5126,
      "count": 65534,
      "max": [
        0.9995099902153015,
        0.9999970197677612
      ],
      "min": [
        0.00016399999731220305,
        0.0004920000210404396
      ],
      "type": "VEC2"
    },
    {
      "bufferView": 0,
      "byteOffset": 9827940,
      "componentType": 5125,
      "count": 199266,
      "type": "SCALAR"
    },
    {
      "bufferView": 2,
      "byteOffset": 14154960,
      "componentType": 5126,
      "count": 65532,
      "max": [
        98.24559020996094,
        25.73556900024414,
        20.550073623657227
      ],
      "min": [
        -82.76097869873047,
        -120.75801086425781,
        -87.60103607177734
      ],
      "type": "VEC3"
    },
    {
      "bufferView": 2,
      "byteOffset": 14941344,
      "componentType": 5126,
      "count": 65532,
      "max": [
        0.9999721050262451,
        0.9998807311058044,
        0.9999815225601196
      ],
      "min": [
        -0.9999833703041077,
        -0.9999452829360962,
        -0.9999959468841553
      ],
      "type": "VEC3"
    },
    {
      "bufferView": 1,
      "byteOffset": 4718320,
      "componentType": 5126,
      "count": 65532,
      "max": [
        0.9995009899139404,
        0.9999989867210388
      ],
      "min": [
        6.800000119255856e-05,
        1.8000000636675395e-05
      ],
      "type": "VEC2"
    },
    {
      "bufferView": 0,
      "byteOffset": 10625004,
      "componentType": 5125,
      "count": 197463,
      "type": "SCALAR"
    },
    {
      "bufferView": 2,
      "byteOffset": 15727728,
      "componentType": 5126,
      "count": 31319,
      "max": [
        64.74972534179688,
        25.57547378540039,
        31.27817726135254
      ],
      "min": [
        -54.14817810058594,
        -21.94456672668457,
        -18.49618148803711
      ],
      "type": "VEC3"
    },
    {
      "bufferView": 2,
      "byteOffset": 16103556,
      "componentType": 5126,
      "count": 31319,
      "max": [
        0.9999803900718689,
        0.9999921321868896,
        0.9999815225601196
      ],
      "min": [
        -0.9999986886978149,
        -0.9999576807022095,
        -0.9999577403068542
      ],
      "type": "VEC3"
    },
    {
      "bufferView": 1,
      "byteOffset": 5242576,
      "componentType": 5126,
      "count": 31319,
      "max": [
        0.9994999766349792,
        0.9999439716339111
      ],
      "min": [
        0.00015799999528098851,
        0.0005300000193528831
      ],
      "type": "VEC2"
    },
    {
      "bufferView": 0,
      "byteOffset": 11414856,
      "componentType": 5125,
      "count": 107358,
      "type": "SCALAR"
    }
  ],
  "asset": {
    "extras": {
      "author": "Taylor (https://sketchfab.com/thoulihan)",
      "license": "CC-BY-4.0 (http://creativecommons.org/licenses/by/4.0/)",
      "source": "https://sketchfab.com/3d-models/rowhouses-on-29th-st-baltimore-519a433264584a87b97700a608fefed2",
      "title": "Rowhouses on 29th St. Baltimore"
    },
    "generator": "Sketchfab-12.97.0",
    "version": "2.0"
  },
  "bufferViews": [
    {
      "buffer": 0,
      "byteLength": 11844288,
      "name": "floatBufferViews",
      "target": 34963
    },
    {
      "buffer": 0,
      "byteLength": 5493128,
      "byteOffset": 11844288,
      "byteStride": 8,
      "name": "floatBufferViews",
      "target": 34962
    },
    {
      "buffer": 0,
      "byteLength": 16479384,
      "byteOffset": 17337416,
      "byteStride": 12,
      "name": "floatBufferViews",
      "target": 34962
    }
  ],
  "buffers": [
    {
      "byteLength": 33816800,
      "uri": "scene.bin"
    }
  ],
  "extensionsUsed": [
    "KHR_materials_unlit"
  ],
  "images": [
    {
      "uri": "textures/HopkinsPark_1mil_meters_baseColor.jpeg"
    }
  ],
  "materials": [
    {
      "doubleSided": true,
      "extensions": {
        "KHR_materials_unlit": {}
      },
      "name": "HopkinsPark_1mil_meters",
      "pbrMetallicRoughness": {
        "baseColorTexture": {
          "index": 0
        },
        "metallicFactor": 0.0
      }
    }
  ],
  "meshes": [
    {
      "name": "Object_0",
      "primitives": [
        {
          "attributes": {
            "NORMAL": 1,
            "POSITION": 0,
            "TEXCOORD_0": 2
          },
          "indices": 3,
          "material": 0,
          "mode": 4
        }
      ]
    },
    {
      "name": "Object_1",
      "primitives": [
        {
          "attributes": {
            "NORMAL": 5,
            "POSITION": 4,
            "TEXCOORD_0": 6
          },
          "indices": 7,
          "material": 0,
          "mode": 4
        }
      ]
    },
    {
      "name": "Object_2",
      "primitives": [
        {
          "attributes": {
            "NORMAL": 9,
            "POSITION": 8,
            "TEXCOORD_0": 10
          },
          "indices": 11,
          "material": 0,
          "mode": 4
        }
      ]
    },
    {
      "name": "Object_3",
      "primitives": [
        {
          "attributes": {
            "NORMAL": 13,
            "POSITION": 12,
            "TEXCOORD_0": 14
          },
          "indices": 15,
          "material": 0,
          "mode": 4
        }
      ]
    },
    {
      "name": "Object_4",
      "primitives": [
        {
          "attributes": {
            "NORMAL": 17,
            "POSITION": 16,
            "TEXCOORD_0": 18
          },
          "indices": 19,
          "material": 0,
          "mode": 4
        }
      ]
    },
    {
      "name": "Object_5",
      "primitives": [
        {
          "attributes": {
            "NORMAL": 21,
            "POSITION": 20,
            "TEXCOORD_0": 22
          },
          "indices": 23,
          "material": 0,
          "mode": 4
        }
      ]
    },
    {
      "name": "Object_6",
      "primitives": [
        {
          "attributes": {
            "NORMAL": 25,
            "POSITION": 24,
            "TEXCOORD_0": 26
          },
          "indices": 27,
          "material": 0,
          "mode": 4
        }
      ]
    },
    {
      "name": "Object_7",
      "primitives": [
        {
          "attributes": {
            "NORMAL": 29,
            "POSITION": 28,
            "TEXCOORD_0": 30
          },
          "indices": 31,
          "material": 0,
          "mode": 4
        }
      ]
    },
    {
      "name": "Object_8",
      "primitives": [
        {
          "attributes": {
            "NORMAL": 33,
            "POSITION": 32,
            "TEXCOORD_0": 34
          },
          "indices": 35,
          "material": 0,
          "mode": 4
        }
      ]
    },
    {
      "name": "Object_9",
      "primitives": [
        {
          "attributes": {
            "NORMAL": 37,
            "POSITION": 36,
            "TEXCOORD_0": 38
          },
          "indices": 39,
          "material": 0,
          "mode": 4
        }
      ]
    },
    {
      "name": "Object_10",
      "primitives": [
        {
          "attributes": {
            "NORMAL": 41,
            "POSITION": 40,
            "TEXCOORD_0": 42
          },
          "indices": 43,
          "material": 0,
          "mode": 4
        }
      ]
    }
  ],
  "nodes": [
    {
      "children": [
        1
      ],
      "matrix": [
        0.3196100442699912,
        0.007175003797240875,
        0.3514916820347924,
        0.0,
        0.29490465372527197,
        -0.2640722701386799,
        -0.262765162808174,
        0.0,
        0.19138736049946203,
        0.39492126118922505,
        -0.18208932592338015,
        0.0,
        0.0,
        0.0,
        0.0,
        1.0
      ],
      "name": "Sketchfab_model"
    },
    {
      "children": [
        2,
        3,
        4,
        5,
        6,
        7,
        8,
        9,
        10,
        11,
        12
      ],
      "name": "HopkinsPark_1mil_meters.obj.cleaner.materialmerger.gles"
    },
    {
      "mesh": 0,
      "name": "Object_2"
    },
    {
      "mesh": 1,
      "name": "Object_3"
    },
    {
      "mesh": 2,
      "name": "Object_4"
    },
    {
      "mesh": 3,
      "name": "Object_5"
    },
    {
      "mesh": 4,
      "name": "Object_6"
    },
    {
      "mesh": 5,
      "name": "Object_7"
    },
    {
      "mesh": 6,
      "name": "Object_8"
    },
    {
      "mesh": 7,
      "name": "Object_9"
    },
    {
      "mesh": 8,
      "name": "Object_10"
    },
    {
      "mesh": 9,
      "name": "Object_11"
    },
    {
      "mesh": 10,
      "name": "Object_12"
    }
  ],
  "samplers": [
    {
      "magFilter": 9729,
      "minFilter": 9987,
      "wrapS": 10497,
      "wrapT": 10497
    }
  ],
  "scene": 0,
  "scenes": [
    {
      "name": "Sketchfab_Scene",
      "nodes": [
        0
      ]
    }
  ],
  "textures": [
    {
      "sampler": 0,
      "source": 0
    }
  ]
}
